<?xml version="1.0" encoding="UTF-8" standalone="no"?>
<!DOCTYPE svg PUBLIC "-//W3C//DTD SVG 1.1//EN"
 "http://www.w3.org/Graphics/SVG/1.1/DTD/svg11.dtd">
<!-- Generated by graphviz version 2.38.0 (20140413.2041)
 -->
<!-- Title: wti_control::ControllerInterface Pages: 1 -->
<svg width="533pt" height="132pt"
 viewBox="0.00 0.00 533.00 132.00" xmlns="http://www.w3.org/2000/svg" xmlns:xlink="http://www.w3.org/1999/xlink">
<g id="graph0" class="graph" transform="scale(1 1) rotate(0) translate(4 128)">
<title>wti_control::ControllerInterface</title>
<polygon fill="white" stroke="none" points="-4,4 -4,-128 529,-128 529,4 -4,4"/>
<!-- Node1 -->
<g id="node1" class="node"><title>Node1</title>
<polygon fill="#bfbfbf" stroke="black" points="0,-38.5 0,-57.5 150,-57.5 150,-38.5 0,-38.5"/>
<text text-anchor="middle" x="75" y="-45.5" font-family="Helvetica,sans-Serif" font-size="10.00">wti_control::ControllerInterface</text>
</g>
<!-- Node2 -->
<g id="node2" class="node"><title>Node2</title>
<g id="a_node2"><a xlink:href="classwti__control_1_1_controller_with_lasers_inferface.html" target="_top" xlink:title="wti_control::ControllerWith\lLasersInferface">
<polygon fill="white" stroke="black" points="195.5,-77 195.5,-107 327.5,-107 327.5,-77 195.5,-77"/>
<text text-anchor="start" x="203.5" y="-95" font-family="Helvetica,sans-Serif" font-size="10.00">wti_control::ControllerWith</text>
<text text-anchor="middle" x="261.5" y="-84" font-family="Helvetica,sans-Serif" font-size="10.00">LasersInferface</text>
</a>
</g>
</g>
<!-- Node1&#45;&gt;Node2 -->
<g id="edge1" class="edge"><title>Node1&#45;&gt;Node2</title>
<path fill="none" stroke="midnightblue" d="M125.832,-59.884C147.842,-65.1331 173.97,-71.3642 197.328,-76.9346"/>
<polygon fill="midnightblue" stroke="midnightblue" points="126.573,-56.4627 116.034,-57.5473 124.949,-63.2717 126.573,-56.4627"/>
</g>
<!-- Node5 -->
<g id="node5" class="node"><title>Node5</title>
<g id="a_node5"><a xlink:href="classwti__control_1_1_direction_controller.html" target="_top" xlink:title="wti_control::DirectionController">
<polygon fill="white" stroke="black" points="186,-38.5 186,-57.5 337,-57.5 337,-38.5 186,-38.5"/>
<text text-anchor="middle" x="261.5" y="-45.5" font-family="Helvetica,sans-Serif" font-size="10.00">wti_control::DirectionController</text>
</a>
</g>
</g>
<!-- Node1&#45;&gt;Node5 -->
<g id="edge4" class="edge"><title>Node1&#45;&gt;Node5</title>
<path fill="none" stroke="midnightblue" d="M160.487,-48C168.934,-48 177.469,-48 185.805,-48"/>
<polygon fill="midnightblue" stroke="midnightblue" points="160.246,-44.5001 150.246,-48 160.246,-51.5001 160.246,-44.5001"/>
</g>
<!-- Node6 -->
<g id="node6" class="node"><title>Node6</title>
<g id="a_node6"><a xlink:href="classwti__control_1_1_position_controller.html" target="_top" xlink:title="wti_control::PositionController">
<polygon fill="white" stroke="black" points="188,-0.5 188,-19.5 335,-19.5 335,-0.5 188,-0.5"/>
<text text-anchor="middle" x="261.5" y="-7.5" font-family="Helvetica,sans-Serif" font-size="10.00">wti_control::PositionController</text>
</a>
</g>
</g>
<!-- Node1&#45;&gt;Node6 -->
<g id="edge5" class="edge"><title>Node1&#45;&gt;Node6</title>
<path fill="none" stroke="midnightblue" d="M132.367,-36.3905C158.607,-30.986 189.436,-24.6365 214.278,-19.5201"/>
<polygon fill="midnightblue" stroke="midnightblue" points="131.645,-32.9656 122.557,-38.411 133.058,-39.8217 131.645,-32.9656"/>
</g>
<!-- Node3 -->
<g id="node3" class="node"><title>Node3</title>
<g id="a_node3"><a xlink:href="classwti__control_1_1_lidar_blade_follower.html" target="_top" xlink:title="wti_control::LidarBladeFollower">
<polygon fill="white" stroke="black" points="373,-104.5 373,-123.5 525,-123.5 525,-104.5 373,-104.5"/>
<text text-anchor="middle" x="449" y="-111.5" font-family="Helvetica,sans-Serif" font-size="10.00">wti_control::LidarBladeFollower</text>
</a>
</g>
</g>
<!-- Node2&#45;&gt;Node3 -->
<g id="edge2" class="edge"><title>Node2&#45;&gt;Node3</title>
<path fill="none" stroke="midnightblue" d="M337.709,-100.92C349.301,-102.294 361.271,-103.714 372.861,-105.089"/>
<polygon fill="midnightblue" stroke="midnightblue" points="337.982,-97.4276 327.64,-99.7254 337.158,-104.379 337.982,-97.4276"/>
</g>
<!-- Node4 -->
<g id="node4" class="node"><title>Node4</title>
<g id="a_node4"><a xlink:href="classwti__control_1_1_tower_ascent_controller.html" target="_top" xlink:title="wti_control::TowerAscent\lController">
<polygon fill="white" stroke="black" points="385,-55 385,-85 513,-85 513,-55 385,-55"/>
<text text-anchor="start" x="393" y="-73" font-family="Helvetica,sans-Serif" font-size="10.00">wti_control::TowerAscent</text>
<text text-anchor="middle" x="449" y="-62" font-family="Helvetica,sans-Serif" font-size="10.00">Controller</text>
</a>
</g>
</g>
<!-- Node2&#45;&gt;Node4 -->
<g id="edge3" class="edge"><title>Node2&#45;&gt;Node4</title>
<path fill="none" stroke="midnightblue" d="M337.794,-83.0702C353.428,-81.2161 369.748,-79.2806 384.89,-77.4848"/>
<polygon fill="midnightblue" stroke="midnightblue" points="337.158,-79.6211 327.64,-84.2746 337.982,-86.5724 337.158,-79.6211"/>
</g>
</g>
</svg>
